HIERARCHY
ROOT Hips
{
  OFFSET 3.13124 94.3669 -3.18751
  CHANNELS  6 Xposition Yposition Zposition Zrotation Xrotation Yrotation
  JOINT LeftUpLeg
  {
    OFFSET 8.64259 1.95398 -2.38835
    CHANNELS 3 Zrotation Xrotation Yrotation
    JOINT LeftLeg
    {
      OFFSET 43.7702 0 0
      CHANNELS 3 Zrotation Xrotation Yrotation
      JOINT LeftFoot
      {
        OFFSET 40.6238 0 0
        CHANNELS 3 Zrotation Xrotation Yrotation
        JOINT LeftToeBase
        {
          OFFSET 12.7242 0 0
          CHANNELS 3 Zrotation Xrotation Yrotation
          End Site
          {
            OFFSET 0 0 0
          }
        }
      }
    }
  }
  JOINT RightUpLeg
  {
    OFFSET -8.2249 1.95398 -2.59336
    CHANNELS 3 Zrotation Xrotation Yrotation
    JOINT RightLeg
    {
      OFFSET 43.5653 0 0
      CHANNELS 3 Zrotation Xrotation Yrotation
      JOINT RightFoot
      {
        OFFSET 40.6238 0 0
        CHANNELS 3 Zrotation Xrotation Yrotation
        JOINT RightToeBase
        {
          OFFSET 12.7242 0 0
          CHANNELS 3 Zrotation Xrotation Yrotation
          End Site
          {
            OFFSET 0 0 0
          }
        }
      }
    }
  }
  JOINT Spine
  {
    OFFSET 0.165834 0.87714 6.61349
    CHANNELS 3 Zrotation Xrotation Yrotation
    JOINT Spine1
    {
      OFFSET 7.38962 1.71661e-005 0
      CHANNELS 3 Zrotation Xrotation Yrotation
      JOINT Spine2
      {
        OFFSET 11.9445 1.14441e-005 0
        CHANNELS 3 Zrotation Xrotation Yrotation
        JOINT Spine3
        {
          OFFSET 14.7254 4.19617e-005 0
          CHANNELS 3 Zrotation Xrotation Yrotation
          JOINT Spine4
          {
            OFFSET 10.9679 0 0
            CHANNELS 3 Zrotation Xrotation Yrotation
            JOINT RightShoulder
            {
              OFFSET 2.46616 -1.6653 3.69651
              CHANNELS 3 Zrotation Xrotation Yrotation
              JOINT RightArm
              {
                OFFSET 13.0012 0 0
                CHANNELS 3 Zrotation Xrotation Yrotation
                JOINT RightForeArm
                {
                  OFFSET 28.7848 1.52588e-005 0
                  CHANNELS 3 Zrotation Xrotation Yrotation
                  JOINT RightHand
                  {
                    OFFSET 26.5688 1.52588e-005 0
                    CHANNELS 3 Zrotation Xrotation Yrotation
                    End Site
                    {
                      OFFSET 0 0 0
                    }
                  }
                }
              }
            }
            JOINT LeftShoulder
            {
              OFFSET 2.38034 -1.29275 -3.75231
              CHANNELS 3 Zrotation Xrotation Yrotation
              JOINT LeftArm
              {
                OFFSET 16.3182 6.10352e-005 0
                CHANNELS 3 Zrotation Xrotation Yrotation
                JOINT LeftForeArm
                {
                  OFFSET 27.0901 0 0
                  CHANNELS 3 Zrotation Xrotation Yrotation
                  JOINT LeftHand
                  {
                    OFFSET 24.5451 1.52588e-005 0
                    CHANNELS 3 Zrotation Xrotation Yrotation
                    End Site
                    {
                      OFFSET 0 0 0
                    }
                  }
                }
              }
            }
            JOINT Neck
            {
              OFFSET 5.0226 -0.0266342 0
              CHANNELS 3 Zrotation Xrotation Yrotation
              JOINT Head
              {
                OFFSET 6.69363 2.86102e-005 0
                CHANNELS 3 Zrotation Xrotation Yrotation
                End Site
                {
                  OFFSET 0 0 0
                }
              }
            }
          }
        }
      }
    }
  }
}
MOTION
Frames:	16
Frame Time:	0.0333333
115.059 79.3066 84.1 -73.5486 -54.8426 -65.787 156.357 49.4369 138.044 -68.4747 20.929 2.23066 3.24069 44.4671 68.994 28.7808 4.17459e-006 1.16017e-005 174.89 17.1104 63.2667 -26.1187 14.1729 0.752147 14.0555 11.1698 17.5866 28.7808 1.4467e-005 1.79132e-005 1.79883 7.8631 -90.0939 11.0918 3.09089 0.733781 -0.574583 3.12017 0.596907 -23.1442 2.72736 1.62936 -3.13157 2.72736 1.62937 122.281 -36.3588 -45.3999 24.5067 16.4827 7.8373 -137.817 -38.8347 -123.744 -10.3206 4.0243 -50.5137 -72.995 -29.1685 106.616 -37.1044 -5.67827 23.3048 148.478 22.311 -124.364 32.63 -29.6978 -84.3665 -8.47092 -22.7885 -40.1902 12.0782 -22.0224 -17.9153 
111.264 80.4916 81.605 -80.1272 -45.6603 -73.718 163.164 40.9697 135.446 -63.5036 16.7751 1.84254 7.78949 38.9698 56.8382 28.7808 4.17459e-006 1.16017e-005 179.975 25.5357 65.9762 -38.0795 28.4883 1.69802 27.4221 5.36016 7.09385 28.7808 1.4467e-005 1.79132e-005 2.31175 7.49186 -90.7362 11.8619 4.05165 -0.740649 0.196927 4.01489 -0.918514 -22.3883 4.08661 0.513374 -2.37567 4.0866 0.51337 118.669 -25.0684 -46.3543 22.2037 18.0173 24.8451 -131.468 -38.0644 -118 -18.3369 7.39525 -49.658 -82.731 -41.0016 88.7677 -30.8995 -10.4989 29.395 134.079 30.5077 -118.409 28.6981 -28.6731 -89.3117 -8.6944 -28.493 -8.83256 -4.40266 -26.4982 -43.3488 
106.87 81.7511 78.9977 -86.4644 -32.5818 -81.5888 172.372 27.9991 130.746 -56.8985 10.112 1.29617 13.0357 32.1939 43.2026 28.7808 4.17459e-006 1.16017e-005 -177.862 31.3665 68.6479 -43.7478 32.9592 2.00039 36.0486 -0.107153 0.744236 28.7808 1.4467e-005 1.79132e-005 1.81619 7.44332 -90.1602 11.9566 3.70772 0.315475 0.290902 3.72066 0.151708 -22.282 3.44214 1.41755 -2.26936 3.44213 1.41752 113.894 -31.757 -58.8311 15.3939 20.9336 37.6927 -127.308 -36.0256 -113.824 -17.1071 7.75149 -55.1224 -80.7129 -39.2826 92.0595 -29.3652 -11.4383 43.7378 116.897 23.4866 -103.631 17.298 -21.4432 -99.7131 -11.4353 -24.6999 -2.56303 -8.055 -22.1197 -45.872 
102.227 82.9378 76.044 -90.9812 -18.026 -86.4524 179.371 14.9578 127.222 -51.329 3.20598 0.787084 19.4692 23.6177 28.1841 28.7808 4.17459e-006 1.16017e-005 -177.758 33.5095 71.974 -45.0727 22.2159 1.04276 42.9164 -5.21793 -3.76221 28.7808 1.4467e-005 1.79132e-005 1.52078 7.34013 -89.6046 12.1593 3.62361 1.19563 0.492755 3.6777 1.03555 -22.0673 3.08414 2.21346 -2.05467 3.08414 2.21345 107.174 -36.2992 -72.6825 11.941 21.4496 48.5317 -126.899 -34.9359 -113.016 -20.5075 10.0053 -58.2882 -79.0377 -35.9349 94.8311 -31.5646 -9.99276 50.5618 108.489 14.4136 -96.9911 16.3779 -19.905 -97.5298 -12.7311 -21.6595 2.13943 -10.2085 -18.4375 -45.9797 
98.5223 82.8566 73.1517 -93.4812 -6.71175 -88.0965 178.408 10.0872 123.348 -59.838 -8.933 0.296172 21.4927 19.6067 22.2905 28.7808 4.17459e-006 1.16017e-005 -177.46 35.9395 75.3898 -49.9712 12.8498 0.320286 48.1898 -10.3597 -7.49458 28.7808 1.4467e-005 1.79132e-005 0.902531 7.41251 -89.5978 12.0188 2.71463 1.51237 0.350062 2.7786 1.38891 -22.1941 2.13423 2.27518 -2.18149 2.13424 2.27517 101.686 -37.5146 -82.9113 12.9723 20.6502 52.4942 -122.33 -37.631 -110.933 -20.5563 10.8122 -61.7959 -77.1039 -35.955 98.3373 -33.4051 -8.57912 50.2874 102.803 12.9069 -95.084 17.4245 -20.2602 -95.6033 -10.2775 -20.6807 4.18962 -10.8222 -17.5389 -43.5267 
96.1927 82.0615 69.6706 -94.7756 -0.125257 -87.4655 173.962 11.9788 120.68 -74.4044 -22.0859 -0.21128 43.9407 11.1519 8.45993 28.7808 4.17459e-006 1.16017e-005 -178.133 38.0141 80.665 -54.9053 8.53198 -0.040471 50.7074 -15.7112 -11.1785 28.7808 1.4467e-005 1.79132e-005 0.371402 7.49061 -89.7906 11.883 1.53052 1.19177 0.212449 1.58147 1.12344 -22.3225 1.10164 1.59663 -2.30986 1.1016 1.5966 99.6088 -34.7432 -86.9292 18.9552 19.089 55.7746 -115.797 -38.0851 -106.578 -20.478 9.33377 -55.2598 -79.3537 -36.3044 94.279 -34.8988 -7.8593 49.7855 99.8286 14.3694 -94.5572 22.43 -23.7672 -91.8225 -8.86531 -22.7709 5.40099 -12.1327 -19.0094 -46.2485 
94.1198 81.5808 66.5003 -95.2954 6.94129 -85.651 171.653 16.2345 116.744 -84.016 -38.555 -1.31353 53.7363 3.85594 2.31852 28.7808 4.17459e-006 1.16017e-005 -179.847 38.7989 86.8602 -57.5372 6.03342 -0.235182 54.3035 -18.0288 -12.1511 28.7808 1.4467e-005 1.79132e-005 -0.219387 7.62723 -89.9844 11.6249 0.287553 1.07707 -0.0464594 0.334662 1.0606 -22.578 -0.0494273 1.1135 -2.56539 -0.0494285 1.11348 99.1626 -35.3722 -87.7309 23.9773 17.7672 52.2881 -108.546 -42.4676 -102.719 -17.8459 7.76152 -53.492 -81.1494 -34.1226 90.8622 -42.1269 -4.01387 31.841 117.991 31.3673 -107.479 51.4718 -47.096 -85.8376 -7.68028 -24.9352 -1.20726 -11.5584 -21.156 -44.2301 
92.1053 81.8142 64.151 -95.2213 15.2985 -84.6796 171.657 22.3921 111.077 -89.748 -48.2292 -2.25991 60.027 -6.50614 -4.1682 28.7808 4.17459e-006 1.16017e-005 178.745 38.7325 91.25 -57.8844 1.73178 -0.488886 56.7032 -19.9271 -12.9269 28.7808 1.4467e-005 1.79132e-005 -0.632555 7.65906 -89.9733 11.5746 -0.735323 1.21842 -0.0967822 -0.680997 1.2496 -22.6307 -1.0675 0.944121 -2.61808 -1.06751 0.944107 100.07 -38.9955 -85.7918 24.6881 17.3434 44.8622 -110.296 -47.9742 -105.062 -17.991 8.42522 -56.6579 -81.4584 -31.0125 89.9642 -44.4219 -2.587 30.8057 112.083 33.0415 -104.39 50.7535 -45.0994 -83.3505 -5.66092 -26.9812 -8.52495 -11.3457 -22.993 -39.6469 
89.815 81.9636 62.738 -95.3002 26.3511 -84.7867 172.718 34.0454 104.428 -95.0569 -57.5012 -3.60996 50.8451 -9.76761 -7.5374 28.7808 4.17459e-006 1.16017e-005 177.959 38.5785 93.559 -58.3153 -5.11989 -0.87723 59.0649 -21.2219 -13.2106 28.7808 1.4467e-005 1.79132e-005 -0.835695 7.57353 -90.0087 11.7568 -1.34512 1.50431 0.0855921 -1.27761 1.56203 -22.4513 -1.73457 1.03068 -2.43873 -1.73458 1.03067 100.567 -42.0576 -84.778 26.1166 16.7796 41.0869 -105.659 -49.7733 -101.778 -16.6013 8.13808 -58.6638 -81.5967 -27.8056 89.3363 -45.6432 -2.10289 38.8343 89.2145 27.4798 -91.293 32.4626 -30.5039 -86.0737 -4.509 -28.288 -11.5004 -12.8507 -23.4488 -39.5483 
86.8764 82.5458 61.5667 -96.1332 39.8175 -84.8106 176.556 36.5249 97.7379 -89.8824 -44.8163 -1.81155 60.8745 -1.38555 -0.913796 28.7808 4.17459e-006 1.16017e-005 177.651 37.1015 94.5372 -58.0322 -16.6999 -1.52719 59.6587 -23.4976 -14.4947 28.7808 1.4467e-005 1.79132e-005 -0.916522 7.47739 -90.0794 11.9566 -1.58622 1.67636 0.285547 -1.51158 1.74485 -22.2533 -2.02353 1.11958 -2.24066 -2.02353 1.11955 100.439 -42.8307 -84.9626 28.4898 15.9513 40.8418 -107.569 -44.7842 -102.443 -14.7679 7.03834 -57.8962 -81.3673 -26.5449 89.6329 -45.568 -2.21905 40.4232 85.8853 25.9637 -89.8111 29.5477 -27.3721 -85.0191 -3.74857 -29.0984 -12.7501 -11.5517 -24.6734 -37.3166 
83.2957 84.3525 60.4038 -98.0465 54.5152 -85.2624 179.491 35.272 92.7605 -79.2857 -26.3377 -0.423168 66.5216 1.20563 0.703004 28.7808 4.17459e-006 1.16017e-005 178.271 34.0643 92.6097 -55.6982 -31.1937 -2.3708 56.9701 -24.2984 -15.6486 28.7808 1.4467e-005 1.79132e-005 -0.934106 7.4701 -89.8226 11.9722 -1.58644 2.09404 0.300354 -1.49354 2.16197 -22.2343 -2.14527 1.51964 -2.2217 -2.1453 1.51962 102.152 -43.8899 -82.0321 31.5995 14.7282 37.5276 -111.168 -46.1633 -105.354 -20.7468 8.9055 -52.6263 -81.0463 -26.3895 90.2846 -44.3761 -2.97516 37.4625 90.4243 29.3916 -91.8547 31.4005 -29.4151 -85.9802 -1.24174 -30.0605 -12.5005 -11.5063 -25.4245 -36.6769 
79.3804 87.1586 58.622 -106.468 69.9505 -78.8568 -179.789 31.2629 91.4378 -66.6068 -9.49752 0.353963 65.2903 -2.23983 -1.24602 28.7808 4.17459e-006 1.16017e-005 178.829 28.3573 90.1685 -50.9406 -47.3519 -3.55704 53.7717 -21.6679 -14.7133 28.7808 1.4467e-005 1.79132e-005 -1.01496 7.51239 -89.617 11.8878 -1.70633 2.30908 0.215846 -1.603 2.38191 -22.3184 -2.32181 1.68949 -2.30576 -2.32181 1.68948 102.91 -46.0412 -80.7696 31.2546 14.7121 37.7308 -97.1395 -44.7684 -95.0367 -12.2166 5.59649 -56.4271 -80.8657 -28.2813 90.8495 -43.9583 -3.24963 37.0959 91.6694 29.8855 -92.4908 31.3547 -29.6158 -86.3453 1.76313 -30.4578 -12.0527 -12.3742 -25.4932 -34.2353 
75.7907 90.7951 56.8437 -156.926 82.4624 -30.1081 -179.585 24.3023 91.3325 -52.1979 2.77026 0.71739 59.725 -3.28826 -2.17658 28.7808 4.17459e-006 1.16017e-005 178.864 21.4086 87.6595 -43.3461 -58.9157 -4.80245 49.2905 -12.9945 -9.19558 28.7808 1.4467e-005 1.79132e-005 -1.16808 7.67425 -89.3251 11.5648 -1.90159 2.59917 -0.107407 -1.78696 2.67999 -22.6414 -2.58835 1.90971 -2.62875 -2.58836 1.90968 106.405 -46.1294 -75.0745 31.418 14.3794 36.5999 -94.254 -42.1555 -92.9913 -5.00892 1.89276 -52.3549 -80.4105 -29.5587 91.8633 -43.8309 -3.10315 35.9032 95.6369 30.2612 -94.5741 34.8368 -30.1729 -81.5823 1.0259 -30.322 -16.2998 -9.28008 -25.8941 -30.2015 
72.025 95.0732 55.6824 92.4735 76.2003 84.088 -178.901 22.5409 97.6902 -37.026 27.289 1.74774 45.47 18.4672 14.2671 28.7808 4.17459e-006 1.16017e-005 179.321 16.3477 90.1018 -17.3647 -64.2781 -4.99638 38.116 14.8597 14.5714 28.7808 1.4467e-005 1.79132e-005 -1.02542 7.03901 -89.8763 12.8194 -1.96703 1.07539 1.1494 -1.91495 1.16042 -21.3978 -2.18713 0.436991 -1.38513 -2.18714 0.436986 107.705 -45.7105 -72.9081 30.3622 14.6837 37.1355 -88.681 -39.0815 -89.4701 0.978976 -0.669107 -48.1752 -82.2641 -33.354 88.7064 -42.8946 -4.02611 34.3118 91.4061 33.5315 -92.383 31.4221 -28.4461 -84.0891 -2.28319 -30.7307 -16.2127 -6.87098 -27.3464 -32.2235 
68.0326 97.207 53.7973 88.3418 56.678 88.161 -178.769 23.5919 98.0343 -41.5775 39.0078 2.64584 27.5105 23.4451 24.3106 28.7808 4.17459e-006 1.16017e-005 179.959 14.3293 89.9524 -4.43242 -40.3204 -2.36267 10.3313 25.8298 39.3066 28.7808 1.4467e-005 1.79132e-005 -0.888853 7.03346 -89.4969 12.8011 -1.38891 0.224093 1.13082 -1.37774 0.284385 -21.4095 -1.39187 -0.187287 -1.39684 -1.39187 -0.187313 105.577 -46.0005 -76.419 30.934 14.6074 30.7478 -82.5568 -52.0898 -83.8384 -16.8243 5.62749 -43.6817 -84.3283 -36.4141 85.3763 -39.7634 -6.24745 25.3342 117.84 41.7441 -111.163 65.23 -38.9688 -60.052 -3.5451 -32.2938 -11.0209 -8.89279 -28.6744 -39.4768 
63.9397 98.387 51.0555 88.6108 35.504 87.2661 -178.766 18.4833 93.9211 -38.7063 18.8509 1.35586 29.1625 24.54 25.1009 28.7808 4.17459e-006 1.16017e-005 179.267 29.5825 89.6104 -33.6142 -42.0389 -2.6749 13.8092 16.3883 24.8024 28.7808 1.4467e-005 1.79132e-005 -0.373647 7.32252 -89.9602 12.2313 -0.611909 0.0825206 0.560463 -0.607643 0.110804 -21.9759 -0.608793 -0.104028 -1.96321 -0.608799 -0.104038 101.544 -44.471 -83.0481 30.8251 14.5923 27.2314 -84.1652 -55.7189 -84.7727 -19.8788 6.22059 -40.9156 -84.2872 -36.3361 85.4408 -31.1264 -10.1323 28.9876 133.441 29.7143 -117.376 59.4653 -36.7416 -62.2916 1.05018 -33.5032 -6.09416 -13.3133 -28.6921 -40.6737 
